<?xml version="1.0" encoding="UTF-8"?>
<svg xmlns="http://www.w3.org/2000/svg" width="512" height="512" viewBox="0 0 512 512">
    <defs>
        <linearGradient id="vf-bg" x1="0" y1="0" x2="1" y2="1">
            <stop offset="0" stop-color="#0b1424"/>
            <stop offset="1" stop-color="#17263a"/>
        </linearGradient>
        <radialGradient id="vf-glow" cx="0.35" cy="0.3" r="0.75">
            <stop offset="0" stop-color="#3b82f6" stop-opacity="0.35"/>
            <stop offset="0.6" stop-color="#0b1424" stop-opacity="0"/>
        </radialGradient>
        <linearGradient id="vf-ore" x1="0" y1="0" x2="1" y2="0">
            <stop offset="0" stop-color="#f59e0b"/>
            <stop offset="1" stop-color="#fbbf24"/>
        </linearGradient>
        <linearGradient id="vf-ore-d" x1="0" y1="0" x2="1" y2="1">
            <stop offset="0" stop-color="#9a3412"/>
            <stop offset="1" stop-color="#f59e0b"/>
        </linearGradient>
        <linearGradient id="vf-steel" x1="0" y1="0" x2="1" y2="1">
            <stop offset="0" stop-color="#e5e7eb"/>
            <stop offset="1" stop-color="#94a3b8"/>
        </linearGradient>
    </defs>

    <rect x="32" y="32" width="448" height="448" rx="72" fill="url(#vf-bg)"/>
    <rect x="56" y="56" width="400" height="400" rx="60" fill="#0f172a"/>
    <rect x="56" y="56" width="400" height="400" rx="60" fill="url(#vf-glow)"/>

    <path d="M110 120h292l-30 108-66 30-38-28-44 40-48-44-78 22z" fill="#1f2937"/>
    <path d="M156 160l40 24-20 44-44-8 24-60z" fill="url(#vf-ore)"/>
    <path d="M248 150l52 18-8 54-48 10-28-40 32-42z" fill="url(#vf-ore-d)"/>
    <path d="M330 190l52-6 10 56-46 20-32-38 16-32z" fill="url(#vf-ore)"/>

    <g transform="rotate(-35 256 256)">
        <rect x="146" y="246" width="220" height="28" rx="14" fill="#0b0f1a" opacity="0.35"/>
        <rect x="148" y="226" width="216" height="28" rx="14" fill="#334155"/>
        <rect x="174" y="200" width="164" height="24" rx="12" fill="#1f2937"/>
        <rect x="208" y="156" width="96" height="60" rx="10" fill="url(#vf-steel)"/>
        <path d="M304 156l44 30-44 30z" fill="#cbd5f5"/>
        <path d="M212 256l92 0" stroke="#64748b" stroke-width="4"/>
    </g>

    <path d="M96 370h320" stroke="#111827" stroke-width="10" opacity="0.6"/>
    <path d="M110 396h292" stroke="#0b1324" stroke-width="12" opacity="0.9"/>
</svg>
